User Type,Username,Date,Text
,salimo,2006-01-24T15:19Z,"jag har laddat ner den.
Det 채r fan inte space station 3d som gick p책 cosmonova"
,JAMHOT,2006-03-14T01:52Z,is this anaglyph red/cyan 3d ? or the shutter kind anyone help all i have is the traditional 3-d glasses red/cyan
,stilliki,2010-04-11T22:36Z,IS 3D OR NOT?? I GONNA DOWNLOAD IT AND GONA TELL YOU.OK AND IF YOU WONT TO SEE 3D MOVIES YOU NEED GLASESS BLU AND RED FROM PAPER.
,stilliki,2010-04-12T12:14Z,This is 3D
,yoshibs,2010-11-30T15:14Z,"This is not in 3d. Also this is not IMA space station, the actual movie is: ""Inside the Space Station"".

Here's the media info.
General
Complete name                    : G:\ssshibs\IMAX - Space Station 3D - DVDrip (2002)__actually__Inside the Space Station__not_3d.mpg
Format                           : MPEG-PS
File size                        : 780 MiB
Duration                         : 51mn 32s
Overall bit rate                 : 2 117 Kbps

Video
ID                               : 224 (0xE0)
Format                           : MPEG Video
Format version                   : Version 2
Format profile                   : Main@Main
Format settings, BVOP            : Yes
Format settings, Matrix          : Default
Duration                         : 51mn 30s
Bit rate mode                    : Variable
Bit rate                         : 1 915 Kbps
Nominal bit rate                 : 2 540 Kbps
Width                            : 480 pixels
Height                           : 480 pixels
Display aspect ratio             : 4:3
Frame rate                       : 29.970 fps
Color space                      : YUV
Chroma subsampling               : 4:2:0
Bit depth                        : 8 bits
Scan type                        : Progressive
Scan order                       : Top Field First
Bits/(Pixel*Frame)               : 0.277
Stream size                      : 706 MiB (90%)

Audio
ID                               : 192 (0xC0)
Format                           : MPEG Audio
Format version                   : Version 1
Format profile                   : Layer 2
Duration                         : 51mn 32s
Bit rate mode                    : Constant
Bit rate                         : 160 Kbps
Channel(s)                       : 2 channels
Sampling rate                    : 44.1 KHz
Stream size                      : 59.0 MiB (8%)


Notice the scan type is progressive. so cannot be field sequential. Also not side by side or above below, just plain 2d."
,dragon_ba,2011-01-15T17:58Z,I remember this was my favorite imax 3d flick
